# xmcd CD database file
#
# Track frame offsets:
#	150
#	27383
#	50181
#	66585
#	99767
#	119999
#	138751
#	159830
#	177248
#	199205
#	214143
#	234405
#
# Disc length: 3437 seconds
#
# Revision: 0
# Processed by: cddbd v1.5.2PL0 Copyright (c) Steve Scherf et al.
# Submitted via: CDex 1.70beta2
#
DISCID=b00d6b0c
DTITLE=Taner Akyol - Birds Of Passage - Göçmen Kuşlar - WAV
DYEAR=2007
DGENRE=Jazz
TTITLE0=Göçmen Kuşlar
TTITLE1=Sögüt Zeybegi
TTITLE2=Bilen Gelsin
TTITLE3=Payton Geldi Meyhaneye Dayandi
TTITLE4=Bugün Ayin Isigi
TTITLE5=Tokat Ellerinden
TTITLE6=Vay Gurbet
TTITLE7=Suskunum Sana
TTITLE8=Hapisteler Ama
TTITLE9=Anlayamazsin
TTITLE10=Cananim
TTITLE11=Turna Semahi
EXTD=YEAR: 2007
EXTT0=
EXTT1=
EXTT2=
EXTT3=
EXTT4=
EXTT5=
EXTT6=
EXTT7=
EXTT8=
EXTT9=
EXTT10=
EXTT11=
PLAYORDER=
